<?xml version="1.0" encoding="utf-8"?>
<!-- Generator: Adobe Illustrator 19.2.1, SVG Export Plug-In . SVG Version: 6.00 Build 0)  -->
<svg version="1.1" id="Layer_1" xmlns="http://www.w3.org/2000/svg" xmlns:xlink="http://www.w3.org/1999/xlink" x="0px" y="0px"
	 viewBox="0 0 300 300" style="enable-background:new 0 0 300 300;" xml:space="preserve">
<style type="text/css">
	.st0{fill:none;stroke:#2F5A75;stroke-width:16;stroke-linejoin:round;}
</style>
<g>
	<path id="deethree" class="st0" d="M22.7,34h19.8c64.1,0,116.1,52,116.1,116.1s-51.9,116-116,116H22.7v-51h19.8c36,0,65-29.1,65-65
		s-29.1-65-65-65H22.7V34z M115.2,34h81.7c39.1,0,70.8,31.7,70.8,70.8c0,16.6-5.8,32.6-16.4,45.3c25,30.1,20.9,74.7-9.1,99.7
		c-12.8,10.6-28.8,16.4-45.3,16.4h-81.7c20.1-12.6,36.6-30.1,47.8-51h33.9c10.9,0,19.8-8.8,19.8-19.8c0-10.9-8.8-19.8-19.8-19.8
		h-19.8c3.2-16.8,3.2-34.2,0-51h19.8c10.9,0,19.8-8.8,19.8-19.8s-8.8-19.8-19.8-19.8h-33.8C151.8,64.1,135.4,46.5,115.2,34z"/>
</g>
</svg>
