<?xml version="1.0" encoding="utf-8"?>
<!-- Generator: Adobe Illustrator 19.2.1, SVG Export Plug-In . SVG Version: 6.00 Build 0)  -->
<svg version="1.1" id="Layer_1" xmlns="http://www.w3.org/2000/svg" xmlns:xlink="http://www.w3.org/1999/xlink" x="0px" y="0px"
	 viewBox="0 0 300 300" style="enable-background:new 0 0 300 300;" xml:space="preserve">
<style type="text/css">
	.st0{fill:#2F5A75;}
</style>
<g>
	<path class="st0" d="M139.4,23.8c6.4-3.7,14.7-3.7,21.1,0C192.7,42,224.8,60.1,257,78.3c6,3.4,10.1,10.1,10,17.1v109.2
		c0,7.3-4.4,14.1-10.8,17.5c-32,18.1-64,36.1-96.1,54.2c-6.5,3.7-15,3.4-21.3-0.6c-9.6-5.6-19.2-11.1-28.8-16.7
		c-2-1.2-4.2-2.1-5.6-4c1.2-1.7,3.4-1.9,5.2-2.6c4-1.3,7.7-3.3,11.4-5.3c0.9-0.6,2.1-0.4,3,0.2c8.2,4.7,16.3,9.6,24.6,14.2
		c1.8,1,3.5-0.3,5-1.2c31.4-17.8,62.9-35.5,94.3-53.2c1.2-0.6,1.8-1.8,1.7-3.1c0-36,0-72.1,0-108.1c0.1-1.4-0.7-2.8-2-3.4
		c-31.9-18-63.8-36-95.7-54c-1.1-0.8-2.6-0.8-3.8,0c-31.9,18-63.8,36-95.7,54c-1.3,0.6-2.2,1.9-2,3.4c0,36,0,72.1,0,108.1
		c-0.1,1.3,0.6,2.5,1.7,3c8.5,4.8,17,9.6,25.6,14.4c4.8,2.6,10.7,4.1,16,2.1c4.7-1.7,7.9-6.4,7.9-11.4c0-35.8,0-71.7,0-107.5
		c-0.1-1.6,1.4-2.9,2.9-2.8c4.1,0,8.2-0.1,12.3,0c1.7,0,2.9,1.7,2.7,3.3c0,36.1,0,72.1,0,108.2c0,9.6-3.9,20.1-12.8,24.8
		c-10.9,5.7-24.5,4.5-35.3-1c-9.4-4.7-18.3-10.2-27.5-15.2c-6.4-3.3-10.8-10.2-10.8-17.5v-109c-0.1-7.1,4.1-14,10.4-17.3
		C75.4,60,107.4,41.9,139.4,23.8L139.4,23.8z"/>
	<path class="st0" d="M167.4,99.5c14-0.9,28.9-0.5,41.5,6.3c9.7,5.3,15.1,16.3,15.3,27.1c-0.3,1.5-1.8,2.3-3.2,2.2
		c-4.1,0-8.1,0.1-12.2,0c-1.7,0.1-2.7-1.5-2.9-3c-1.2-5.2-4-10.3-8.9-12.8c-7.5-3.7-16.1-3.6-24.3-3.5c-5.9,0.3-12.3,0.8-17.4,4.3
		c-3.9,2.7-5,8-3.7,12.3c1.3,3.1,4.9,4.1,7.8,5c16.8,4.4,34.7,4,51.2,9.8c6.8,2.4,13.5,7,15.9,14.1c3.1,9.6,1.7,21.1-5.1,28.8
		c-5.5,6.3-13.6,9.8-21.6,11.7c-10.7,2.4-21.8,2.4-32.7,1.4c-10.2-1.2-20.8-3.8-28.7-10.8c-6.7-5.9-10-15-9.7-23.8
		c0.1-1.5,1.6-2.5,3-2.4c4.1,0,8.2,0,12.2,0c1.6-0.1,2.8,1.3,2.9,2.8c0.8,4.9,2.6,10.1,6.9,13c8.3,5.3,18.7,5,28.2,5.1
		c7.9-0.3,16.7-0.5,23.1-5.7c3.4-3,4.4-7.9,3.5-12.2c-1-3.6-4.8-5.3-8-6.4c-16.6-5.3-34.6-3.3-51.1-9.3c-6.7-2.4-13.1-6.8-15.7-13.7
		c-3.6-9.7-1.9-21.7,5.6-29.2C146.7,103.4,157.3,100.5,167.4,99.5L167.4,99.5z"/>
</g>
</svg>
