<svg id="Layer_1" data-name="Layer 1" xmlns="http://www.w3.org/2000/svg" viewBox="0 0 271.36 241.7"><defs><style>.cls-1{fill:#2f5a75;}.cls-2{fill:none;stroke:#2f5a75;stroke-width:14px;}</style></defs><title>react_logo</title><g id="Page-1"><g id="react-logo"><g id="Page-1-2" data-name="Page-1"><g id="logo"><circle id="Oval" class="cls-1" cx="135.68" cy="120.62" r="24.01"/><path id="Shape" class="cls-2" d="M150.53,101.06c32.23,0,62.18,4.63,84.75,12.4,27.2,9.36,43.93,23.56,43.93,36.41,0,13.4-17.73,28.48-46.94,38.15-22.09,7.32-51.15,11.14-81.74,11.14-31.37,0-61.08-3.59-83.41-11.22C38.87,178.29,21.85,163,21.85,149.87c0-12.75,16-26.84,42.79-36.19,22.66-7.9,53.34-12.63,85.89-12.63h0Z" transform="translate(-14.85 -29.25)"/><path id="Shape-2" data-name="Shape" class="cls-2" d="M108,125.61c16.1-27.92,35.07-51.55,53.08-67.23,21.7-18.89,42.35-26.28,53.49-19.86,11.6,6.69,15.81,29.58,9.6,59.72-4.69,22.79-15.9,49.87-31.19,76.38-15.67,27.18-33.62,51.12-51.39,66.65C119.15,260.92,97.42,268,86,261.47c-11-6.37-15.27-27.24-10-55.14,4.48-23.58,15.71-52.52,32-80.71h0Z" transform="translate(-14.85 -29.25)"/><path id="Shape-3" data-name="Shape" class="cls-2" d="M108.08,174.69c-16.15-27.9-27.15-56.13-31.73-79.56-5.52-28.23-1.62-49.82,9.51-56.26,11.59-6.71,33.52,1.07,56.54,21.51,17.4,15.45,35.26,38.68,50.59,65.17,15.72,27.15,27.5,54.65,32.08,77.8,5.8,29.29,1.1,51.68-10.27,58.26-11,6.39-31.22-.38-52.75-18.9-18.19-15.65-37.65-39.84-54-68h0Z" transform="translate(-14.85 -29.25)"/></g></g></g></g></svg>