<?xml version="1.0" encoding="utf-8"?>
<!-- Generator: Adobe Illustrator 19.2.1, SVG Export Plug-In . SVG Version: 6.00 Build 0)  -->
<svg version="1.1" id="Layer_1" xmlns="http://www.w3.org/2000/svg" xmlns:xlink="http://www.w3.org/1999/xlink" x="0px" y="0px"
	 viewBox="0 0 300 300" style="enable-background:new 0 0 300 300;" xml:space="preserve">
<style type="text/css">
	.st0{fill:#2F5A75;}
</style>
<g>
	<g>
		<path class="st0" d="M213.4,273L213.4,273c-2.2,0.1-4.4,0.1-6.6,0.1V273c0.2-0.4,0.5-0.4,0.9-0.4c1.7,0,3.3,0,4.9,0
			C212.8,272.6,213.2,272.6,213.4,273z"/>
		<path class="st0" d="M146.2,28.4L146.2,28.4c1.6-0.1,3.1-0.1,4.7-0.1v0.1c-0.1,0.3-0.4,0.4-0.7,0.4c-1.1,0.1-2.2,0.1-3.3,0
			C146.7,28.7,146.4,28.7,146.2,28.4z"/>
		<path class="st0" d="M146.2,28.4c1.6,0,3.2,0,4.8,0c5.6,0.2,10.9,1.3,16.1,3.1c8,2.8,15.1,7.1,21.4,12.8
			c8.3,7.4,14.4,16.4,19,26.4c3.7,8.2,6.2,16.8,7.7,25.7c0.7,4,1.2,7.9,1.5,11.9c0,0.1,0,0.2,0,0.2c0,0.5-0.1,0.5-0.5,0.4
			c-0.1,0-0.3-0.1-0.4-0.1c-4.9-1.7-9.9-3.2-14.9-4.5c-0.7-0.2-0.7-0.2-0.8-1.1c-1.2-10.8-4.6-21-9.6-30.6c-3.1-6-7-11.7-12-16.5
			c-4.8-4.6-10.1-8.2-16.6-10.2c-5-1.6-10-2-15.1-1.6c-9.1,0.9-17.7,3.6-25.6,8.1c-3.6,2-7,4.6-9.9,7.6c-2.1,2.1-3.9,4.7-5.7,7.1
			C98.9,77,94.4,87.8,92,99.6c-1,4.8-1.7,9.7-2,14.5c-0.3,4.5-0.4,9.1-0.2,13.6c0.5,15.4,3.8,30.2,9.9,44.4c2,4.6,4.3,9.1,6.8,13.5
			c0.1,0.1,0.2,0.3,0.2,0.4c0.2,0.4,0.5,0.5,0.9,0.4c0.9-0.2,1.9-0.2,2.7-0.2c7.8,0.1,14.6,5.2,17.1,12.6c3.6,10.8-3.4,22.2-14.7,24
			c-10,1.6-19.4-5.5-20.9-15.4c-0.6-4,0-7.8,2-11.3c0.3-0.6,0.3-1,0-1.6c-5.4-9.3-9.8-19-13.2-29.2c-2.7-8.3-4.7-16.7-5.9-25.3
			c-0.6-4.1-0.9-8.3-1.1-12.5c-0.1-3.6-0.1-7.1,0.1-10.7c0.5-9.9,2.2-19.6,5.1-29.2c1.9-6,4-12,6.8-17.6c4.3-8.4,9.9-16,16.7-22.4
			c7.8-7.4,16.9-13,27.1-16.2c4.6-1.5,9.3-2.4,14.1-2.8C144.6,28.4,145.4,28.4,146.2,28.4z"/>
		<path class="st0" d="M213.4,273c-2.2,0-4.4,0-6.6,0c-6.6-0.2-13.2-1.3-19.6-2.9c-6.3-1.7-12.5-3.9-18.5-6.6
			c-0.3-0.1-0.6-0.2-0.8-0.5c0.1-0.3,0.4-0.5,0.7-0.6c3.7-2.8,7.5-5.7,11-8.8c0.8-0.7,1.6-1.4,2.3-2c0.3-0.3,0.6-0.4,1.1-0.2
			c6,2.6,12.4,4.5,19,5.7c5.4,1,10.7,1.3,16.1,1c7.5-0.4,14.6-2.1,21.3-5.7c6.5-3.5,11.9-8.3,16.2-14.4c2.9-4.1,5.3-8.4,6.8-13.2
			c1.7-5.1,2.2-10.3,1.9-15.7c-0.4-6.9-2.3-13.4-5.2-19.7c-5.3-11.8-12.9-21.9-22.6-30.4c-7-6.1-14.7-11.1-23-15.5
			c-11-5.8-22.6-9.9-34.9-12.1c-4.4-0.8-8.8-1.4-13.3-1.7c-3.8-0.3-7.6-0.4-11.5-0.3c-1.1,0-2.1,0.1-3.2,0.1c-0.5,0-0.8,0.2-1,0.7
			c-1.3,2.7-3.2,5.1-5.7,6.9c-11,8.3-26.9,1.8-29.2-11.8c-1.6-10,5.2-19.4,15.1-21.1c7.4-1.3,14.7,2.2,18.7,8.7
			c0.1,0.2,0.2,0.3,0.3,0.5c0.1,0.3,0.4,0.4,0.7,0.4c0.7,0,1.5,0,2.1,0c4.1-0.1,8.3,0,12.4,0.2c19.2,1.2,37.6,5.7,54.9,14.2
			c10.8,5.4,20.7,12.2,29.5,20.4c6.3,5.9,12.2,12.4,17.1,19.6c5.6,8.2,9.6,17.1,12,26.6c1.1,4.4,1.8,8.9,2,13.4
			c0.4,7.1-0.2,14.1-2.1,21c-2,6.9-5.5,13.1-10.1,18.6c-7.7,9.1-17.4,15.5-28.4,19.8c-6.2,2.4-12.7,4-19.4,4.8
			C217.5,272.8,215.5,273,213.4,273z"/>
		<path class="st0" d="M60,143.2c0.2,0.2,0.2,0.4,0.2,0.7c1.2,5.2,2.4,10.3,4,15.4c0.2,0.6,0.2,0.6-0.4,1.1
			c-3.4,2.6-6.4,5.6-9.4,8.7c-5.3,5.7-9.7,11.8-13,18.7c-2.3,5-4.1,10.1-4.8,15.7c-1,7.2-0.3,14.3,2,21.3c2,5.7,4.8,10.8,8.5,15.5
			c4.8,5.9,10.9,10.1,18,12.9c4.6,1.8,9.3,2.8,14.1,3.3c3.1,0.4,6.3,0.6,9.5,0.6c11.9,0,23.2-2.4,34.2-6.9c6.5-2.7,12.7-6,18.7-9.7
			c6.6-4,12.9-8.5,18.7-13.6c9.4-8.2,17.1-17.8,23.1-28.7c0.5-1,1-1.9,1.6-2.8c0.4-0.7,0.3-0.7-0.2-1.2c-2.4-2.7-4-5.9-4.6-9.5
			c-1.7-10,5.1-19.1,14.5-21c10.2-2,19.9,4.6,21.8,14.8c1.8,10.2-5.1,19.3-14.6,21.2c-1.1,0.2-1.6,0.6-2,1.6
			c-5.5,10.8-12.2,20.9-20.4,29.8c-13.4,14.6-29.4,25.5-47.8,32.7c-9.6,3.7-19.4,6.4-29.5,8c-5.4,0.9-10.8,1.2-16.3,1
			c-9.9-0.4-19.3-2.2-28.4-6.1c-7.8-3.3-14.8-7.9-20.8-14.1c-4.7-5-8.1-10.6-10.5-17c-2-5.4-3.4-10.9-4.1-16.6
			c-0.5-4.2-0.7-8.5-0.4-12.8c0.7-11.1,3.8-21.6,9.1-31.3c4.7-8.5,10.7-15.9,17.8-22.5c3.3-3,6.7-5.9,10.3-8.6
			c0.2-0.1,0.4-0.3,0.6-0.4C59.9,143.2,60,143.2,60,143.2z"/>
	</g>
	<g>
		<path class="st0" d="M213.4,273L213.4,273c-2.2,0.1-4.4,0.1-6.6,0.1V273c0.2-0.4,0.5-0.4,0.9-0.4c1.7,0,3.3,0,4.9,0
			C212.8,272.6,213.2,272.6,213.4,273z"/>
		<path class="st0" d="M146.2,28.4L146.2,28.4c1.6-0.1,3.1-0.1,4.7-0.1v0.1c-0.1,0.3-0.4,0.4-0.7,0.4c-1.1,0.1-2.2,0.1-3.3,0
			C146.7,28.7,146.4,28.7,146.2,28.4z"/>
		<path class="st0" d="M146.2,28.4c1.6,0,3.2,0,4.8,0c5.6,0.2,10.9,1.3,16.1,3.1c8,2.8,15.1,7.1,21.4,12.8
			c8.3,7.4,14.4,16.4,19,26.4c3.7,8.2,6.2,16.8,7.7,25.7c0.7,4,1.2,7.9,1.5,11.9c0,0.1,0,0.2,0,0.2c0,0.5-0.1,0.5-0.5,0.4
			c-0.1,0-0.3-0.1-0.4-0.1c-4.9-1.7-9.9-3.2-14.9-4.5c-0.7-0.2-0.7-0.2-0.8-1.1c-1.2-10.8-4.6-21-9.6-30.6c-3.1-6-7-11.7-12-16.5
			c-4.8-4.6-10.1-8.2-16.6-10.2c-5-1.6-10-2-15.1-1.6c-9.1,0.9-17.7,3.6-25.6,8.1c-3.6,2-7,4.6-9.9,7.6c-2.1,2.1-3.9,4.7-5.7,7.1
			C98.9,77,94.4,87.8,92,99.6c-1,4.8-1.7,9.7-2,14.5c-0.3,4.5-0.4,9.1-0.2,13.6c0.5,15.4,3.8,30.2,9.9,44.4c2,4.6,4.3,9.1,6.8,13.5
			c0.1,0.1,0.2,0.3,0.2,0.4c0.2,0.4,0.5,0.5,0.9,0.4c0.9-0.2,1.9-0.2,2.7-0.2c7.8,0.1,14.6,5.2,17.1,12.6c3.6,10.8-3.4,22.2-14.7,24
			c-10,1.6-19.4-5.5-20.9-15.4c-0.6-4,0-7.8,2-11.3c0.3-0.6,0.3-1,0-1.6c-5.4-9.3-9.8-19-13.2-29.2c-2.7-8.3-4.7-16.7-5.9-25.3
			c-0.6-4.1-0.9-8.3-1.1-12.5c-0.1-3.6-0.1-7.1,0.1-10.7c0.5-9.9,2.2-19.6,5.1-29.2c1.9-6,4-12,6.8-17.6c4.3-8.4,9.9-16,16.7-22.4
			c7.8-7.4,16.9-13,27.1-16.2c4.6-1.5,9.3-2.4,14.1-2.8C144.6,28.4,145.4,28.4,146.2,28.4z"/>
		<path class="st0" d="M213.4,273c-2.2,0-4.4,0-6.6,0c-6.6-0.2-13.2-1.3-19.6-2.9c-6.3-1.7-12.5-3.9-18.5-6.6
			c-0.3-0.1-0.6-0.2-0.8-0.5c0.1-0.3,0.4-0.5,0.7-0.6c3.7-2.8,7.5-5.7,11-8.8c0.8-0.7,1.6-1.4,2.3-2c0.3-0.3,0.6-0.4,1.1-0.2
			c6,2.6,12.4,4.5,19,5.7c5.4,1,10.7,1.3,16.1,1c7.5-0.4,14.6-2.1,21.3-5.7c6.5-3.5,11.9-8.3,16.2-14.4c2.9-4.1,5.3-8.4,6.8-13.2
			c1.7-5.1,2.2-10.3,1.9-15.7c-0.4-6.9-2.3-13.4-5.2-19.7c-5.3-11.8-12.9-21.9-22.6-30.4c-7-6.1-14.7-11.1-23-15.5
			c-11-5.8-22.6-9.9-34.9-12.1c-4.4-0.8-8.8-1.4-13.3-1.7c-3.8-0.3-7.6-0.4-11.5-0.3c-1.1,0-2.1,0.1-3.2,0.1c-0.5,0-0.8,0.2-1,0.7
			c-1.3,2.7-3.2,5.1-5.7,6.9c-11,8.3-26.9,1.8-29.2-11.8c-1.6-10,5.2-19.4,15.1-21.1c7.4-1.3,14.7,2.2,18.7,8.7
			c0.1,0.2,0.2,0.3,0.3,0.5c0.1,0.3,0.4,0.4,0.7,0.4c0.7,0,1.5,0,2.1,0c4.1-0.1,8.3,0,12.4,0.2c19.2,1.2,37.6,5.7,54.9,14.2
			c10.8,5.4,20.7,12.2,29.5,20.4c6.3,5.9,12.2,12.4,17.1,19.6c5.6,8.2,9.6,17.1,12,26.6c1.1,4.4,1.8,8.9,2,13.4
			c0.4,7.1-0.2,14.1-2.1,21c-2,6.9-5.5,13.1-10.1,18.6c-7.7,9.1-17.4,15.5-28.4,19.8c-6.2,2.4-12.7,4-19.4,4.8
			C217.5,272.8,215.5,273,213.4,273z"/>
		<path class="st0" d="M60,143.2c0.2,0.2,0.2,0.4,0.2,0.7c1.2,5.2,2.4,10.3,4,15.4c0.2,0.6,0.2,0.6-0.4,1.1
			c-3.4,2.6-6.4,5.6-9.4,8.7c-5.3,5.7-9.7,11.8-13,18.7c-2.3,5-4.1,10.1-4.8,15.7c-1,7.2-0.3,14.3,2,21.3c2,5.7,4.8,10.8,8.5,15.5
			c4.8,5.9,10.9,10.1,18,12.9c4.6,1.8,9.3,2.8,14.1,3.3c3.1,0.4,6.3,0.6,9.5,0.6c11.9,0,23.2-2.4,34.2-6.9c6.5-2.7,12.7-6,18.7-9.7
			c6.6-4,12.9-8.5,18.7-13.6c9.4-8.2,17.1-17.8,23.1-28.7c0.5-1,1-1.9,1.6-2.8c0.4-0.7,0.3-0.7-0.2-1.2c-2.4-2.7-4-5.9-4.6-9.5
			c-1.7-10,5.1-19.1,14.5-21c10.2-2,19.9,4.6,21.8,14.8c1.8,10.2-5.1,19.3-14.6,21.2c-1.1,0.2-1.6,0.6-2,1.6
			c-5.5,10.8-12.2,20.9-20.4,29.8c-13.4,14.6-29.4,25.5-47.8,32.7c-9.6,3.7-19.4,6.4-29.5,8c-5.4,0.9-10.8,1.2-16.3,1
			c-9.9-0.4-19.3-2.2-28.4-6.1c-7.8-3.3-14.8-7.9-20.8-14.1c-4.7-5-8.1-10.6-10.5-17c-2-5.4-3.4-10.9-4.1-16.6
			c-0.5-4.2-0.7-8.5-0.4-12.8c0.7-11.1,3.8-21.6,9.1-31.3c4.7-8.5,10.7-15.9,17.8-22.5c3.3-3,6.7-5.9,10.3-8.6
			c0.2-0.1,0.4-0.3,0.6-0.4C59.9,143.2,60,143.2,60,143.2z"/>
	</g>
	<g>
		<path class="st0" d="M213.4,273L213.4,273c-2.2,0.1-4.4,0.1-6.6,0.1V273c0.2-0.4,0.5-0.4,0.9-0.4c1.7,0,3.3,0,4.9,0
			C212.8,272.6,213.2,272.6,213.4,273z"/>
		<path class="st0" d="M146.2,28.4L146.2,28.4c1.6-0.1,3.1-0.1,4.7-0.1v0.1c-0.1,0.3-0.4,0.4-0.7,0.4c-1.1,0.1-2.2,0.1-3.3,0
			C146.7,28.7,146.4,28.7,146.2,28.4z"/>
		<path class="st0" d="M146.2,28.4c1.6,0,3.2,0,4.8,0c5.6,0.2,10.9,1.3,16.1,3.1c8,2.8,15.1,7.1,21.4,12.8
			c8.3,7.4,14.4,16.4,19,26.4c3.7,8.2,6.2,16.8,7.7,25.7c0.7,4,1.2,7.9,1.5,11.9c0,0.1,0,0.2,0,0.2c0,0.5-0.1,0.5-0.5,0.4
			c-0.1,0-0.3-0.1-0.4-0.1c-4.9-1.7-9.9-3.2-14.9-4.5c-0.7-0.2-0.7-0.2-0.8-1.1c-1.2-10.8-4.6-21-9.6-30.6c-3.1-6-7-11.7-12-16.5
			c-4.8-4.6-10.1-8.2-16.6-10.2c-5-1.6-10-2-15.1-1.6c-9.1,0.9-17.7,3.6-25.6,8.1c-3.6,2-7,4.6-9.9,7.6c-2.1,2.1-3.9,4.7-5.7,7.1
			C98.9,77,94.4,87.8,92,99.6c-1,4.8-1.7,9.7-2,14.5c-0.3,4.5-0.4,9.1-0.2,13.6c0.5,15.4,3.8,30.2,9.9,44.4c2,4.6,4.3,9.1,6.8,13.5
			c0.1,0.1,0.2,0.3,0.2,0.4c0.2,0.4,0.5,0.5,0.9,0.4c0.9-0.2,1.9-0.2,2.7-0.2c7.8,0.1,14.6,5.2,17.1,12.6c3.6,10.8-3.4,22.2-14.7,24
			c-10,1.6-19.4-5.5-20.9-15.4c-0.6-4,0-7.8,2-11.3c0.3-0.6,0.3-1,0-1.6c-5.4-9.3-9.8-19-13.2-29.2c-2.7-8.3-4.7-16.7-5.9-25.3
			c-0.6-4.1-0.9-8.3-1.1-12.5c-0.1-3.6-0.1-7.1,0.1-10.7c0.5-9.9,2.2-19.6,5.1-29.2c1.9-6,4-12,6.8-17.6c4.3-8.4,9.9-16,16.7-22.4
			c7.8-7.4,16.9-13,27.1-16.2c4.6-1.5,9.3-2.4,14.1-2.8C144.6,28.4,145.4,28.4,146.2,28.4z"/>
		<path class="st0" d="M213.4,273c-2.2,0-4.4,0-6.6,0c-6.6-0.2-13.2-1.3-19.6-2.9c-6.3-1.7-12.5-3.9-18.5-6.6
			c-0.3-0.1-0.6-0.2-0.8-0.5c0.1-0.3,0.4-0.5,0.7-0.6c3.7-2.8,7.5-5.7,11-8.8c0.8-0.7,1.6-1.4,2.3-2c0.3-0.3,0.6-0.4,1.1-0.2
			c6,2.6,12.4,4.5,19,5.7c5.4,1,10.7,1.3,16.1,1c7.5-0.4,14.6-2.1,21.3-5.7c6.5-3.5,11.9-8.3,16.2-14.4c2.9-4.1,5.3-8.4,6.8-13.2
			c1.7-5.1,2.2-10.3,1.9-15.7c-0.4-6.9-2.3-13.4-5.2-19.7c-5.3-11.8-12.9-21.9-22.6-30.4c-7-6.1-14.7-11.1-23-15.5
			c-11-5.8-22.6-9.9-34.9-12.1c-4.4-0.8-8.8-1.4-13.3-1.7c-3.8-0.3-7.6-0.4-11.5-0.3c-1.1,0-2.1,0.1-3.2,0.1c-0.5,0-0.8,0.2-1,0.7
			c-1.3,2.7-3.2,5.1-5.7,6.9c-11,8.3-26.9,1.8-29.2-11.8c-1.6-10,5.2-19.4,15.1-21.1c7.4-1.3,14.7,2.2,18.7,8.7
			c0.1,0.2,0.2,0.3,0.3,0.5c0.1,0.3,0.4,0.4,0.7,0.4c0.7,0,1.5,0,2.1,0c4.1-0.1,8.3,0,12.4,0.2c19.2,1.2,37.6,5.7,54.9,14.2
			c10.8,5.4,20.7,12.2,29.5,20.4c6.3,5.9,12.2,12.4,17.1,19.6c5.6,8.2,9.6,17.1,12,26.6c1.1,4.4,1.8,8.9,2,13.4
			c0.4,7.1-0.2,14.1-2.1,21c-2,6.9-5.5,13.1-10.1,18.6c-7.7,9.1-17.4,15.5-28.4,19.8c-6.2,2.4-12.7,4-19.4,4.8
			C217.5,272.8,215.5,273,213.4,273z"/>
		<path class="st0" d="M60,143.2c0.2,0.2,0.2,0.4,0.2,0.7c1.2,5.2,2.4,10.3,4,15.4c0.2,0.6,0.2,0.6-0.4,1.1
			c-3.4,2.6-6.4,5.6-9.4,8.7c-5.3,5.7-9.7,11.8-13,18.7c-2.3,5-4.1,10.1-4.8,15.7c-1,7.2-0.3,14.3,2,21.3c2,5.7,4.8,10.8,8.5,15.5
			c4.8,5.9,10.9,10.1,18,12.9c4.6,1.8,9.3,2.8,14.1,3.3c3.1,0.4,6.3,0.6,9.5,0.6c11.9,0,23.2-2.4,34.2-6.9c6.5-2.7,12.7-6,18.7-9.7
			c6.6-4,12.9-8.5,18.7-13.6c9.4-8.2,17.1-17.8,23.1-28.7c0.5-1,1-1.9,1.6-2.8c0.4-0.7,0.3-0.7-0.2-1.2c-2.4-2.7-4-5.9-4.6-9.5
			c-1.7-10,5.1-19.1,14.5-21c10.2-2,19.9,4.6,21.8,14.8c1.8,10.2-5.1,19.3-14.6,21.2c-1.1,0.2-1.6,0.6-2,1.6
			c-5.5,10.8-12.2,20.9-20.4,29.8c-13.4,14.6-29.4,25.5-47.8,32.7c-9.6,3.7-19.4,6.4-29.5,8c-5.4,0.9-10.8,1.2-16.3,1
			c-9.9-0.4-19.3-2.2-28.4-6.1c-7.8-3.3-14.8-7.9-20.8-14.1c-4.7-5-8.1-10.6-10.5-17c-2-5.4-3.4-10.9-4.1-16.6
			c-0.5-4.2-0.7-8.5-0.4-12.8c0.7-11.1,3.8-21.6,9.1-31.3c4.7-8.5,10.7-15.9,17.8-22.5c3.3-3,6.7-5.9,10.3-8.6
			c0.2-0.1,0.4-0.3,0.6-0.4C59.9,143.2,60,143.2,60,143.2z"/>
	</g>
</g>
</svg>
