<?xml version="1.0" encoding="utf-8"?>
<!-- Generator: Adobe Illustrator 19.2.1, SVG Export Plug-In . SVG Version: 6.00 Build 0)  -->
<svg version="1.1" id="Layer_1" xmlns="http://www.w3.org/2000/svg" xmlns:xlink="http://www.w3.org/1999/xlink" x="0px" y="0px"
	 viewBox="0 0 300 300" style="enable-background:new 0 0 300 300;" xml:space="preserve">
<style type="text/css">
	.st0{fill:none;stroke:#2F5A75;stroke-width:15;stroke-linejoin:round;stroke-miterlimit:10;}
</style>
<path class="st0" d="M275.3,75.1c-9,4-18.7,6.7-28.8,7.9c10.4-6.2,18.3-16.1,22.1-27.8c-9.7,5.8-20.4,9.9-31.9,12.2
	c-9.2-9.8-22.2-15.9-36.6-15.9c-27.7,0-50.1,22.5-50.1,50.2c0,3.9,0.4,7.8,1.3,11.4C109.6,111,72.6,91,47.9,60.6
	C43.5,68.1,41,76.8,41,85.9c0,17.4,8.9,32.8,22.3,41.8c-8.2-0.2-16-2.5-22.7-6.3c0,0.2,0,0.4,0,0.6c0,24.3,17.3,44.6,40.3,49.2
	c-4.2,1.1-8.7,1.8-13.2,1.8c-3.2,0-6.4-0.3-9.4-0.9c6.4,19.9,24.9,34.5,46.9,34.9c-17.1,13.5-38.8,21.5-62.3,21.5c-4,0-8-0.3-12-0.7
	c22.2,14.4,48.5,22.7,76.8,22.7c92.3,0,142.8-76.5,142.8-142.9c0-2.2-0.1-4.4-0.2-6.5C260.1,94,268.6,85.2,275.3,75.1z"/>
</svg>
