<?xml version="1.0" encoding="utf-8"?>
<!-- Generator: Adobe Illustrator 19.2.1, SVG Export Plug-In . SVG Version: 6.00 Build 0)  -->
<svg version="1.1" id="Layer_1" xmlns="http://www.w3.org/2000/svg" xmlns:xlink="http://www.w3.org/1999/xlink" x="0px" y="0px"
	 viewBox="0 0 300 300" style="enable-background:new 0 0 300 300;" xml:space="preserve">
<style type="text/css">
	.st0{fill:#2F5A75;}
	.st1{fill:#315D85;}
	.st2{fill:#39627C;}
	.st3{fill:#346984;}
	.st4{fill:#3D678C;}
	.st5{fill:#446C90;}
	.st6{fill:#486F92;}
	.st7{fill:#416A8F;}
	.st8{fill:#3A718C;}
	.st9{fill:#4E738A;}
</style>
<g>
	<path class="st0" d="M161,24.9c4.5,0.8,9.2,1.5,13.7,2.4c20.1,4.2,38,12.8,54,25.7c14.1,11.3,25.1,25.1,33,41.2
		c6.8,13.7,11.2,28.1,12.6,43.5c2.1,22.6-1,44.3-10.4,65.2c-5.3,12-12.5,22.6-21.3,32.5c-18.9,21-42.4,33.8-69.7,39.5
		c-11.2,2.3-22.6,2.7-34,1.8c-26.2-2.3-49.5-11.5-70-28.3C55,237,44.2,223.3,36.1,207.3c-6.8-13.6-11-28-12.5-43.2
		c-2.4-24.6,1.6-48,12.8-70C42.9,81.3,51.3,69.8,61.7,60c18-17,39.3-28,63.6-32.8c4-0.8,8.1-1.3,12.1-1.9
		C145.1,24.9,153.1,24.9,161,24.9z M214.3,219.7c1-1.8,1.8-3.7,3.6-4.9c0.6,0.5,1.1,0.8,1.8,1.3c5,5.2,10,10.2,15,15.4
		c0.8,0.8,1.5,1.3,2.4,0.2c11-12.6,19.4-26.8,24.9-42.7c3.7-10.7,5.7-21.7,6.6-33c0.2-1.8-0.6-2.3-2.3-2.3c-4.5,0-9.1,0-13.6,0
		c0-2.1,0-4-0.3-6c4.7,0,9.2,0,13.9,0c1.6,0,2.6-0.3,2.3-2.1c-0.8-4-1-8.1-1.6-12.3c-4-23.9-14.2-44.8-29.9-62.9
		c-1-1.1-1.8-1.1-2.7-0.2c-2.6,2.7-5.3,5.5-7.9,8.2c-2.7,2.6-5.7,5.3-8.4,7.9c-1.5-1.1-3.2-1.9-4.4-3.7c1.5-3.4,4.9-4.9,6.8-7.8
		c1.5-1.1,2.7-2.3,3.7-3.9c0.8,0.3,1.8,0.8,3.1,1.3c-0.6-1.1-1-2.1-1.5-2.9c1.6-1,2.6-2.4,4-3.7c1.1-1,1.1-1.9-0.2-2.9
		c-12.9-11.3-27.7-19.9-44-25.2c-10.2-3.4-20.5-5.2-31.2-6.3c-1.6-0.2-2.1,0.6-2.1,2.1c0,3.7,0,7.4,0,11.2c0,4.2,0,8.4,0,12.8
		c-1.9,0-4,0-6,0c0-1.8,0-3.6,0-5.5c0-6,0-12.1,0-18.1c0-1.5-0.2-2.7-2.1-2.4c-6.3,1-12.6,1.5-18.8,2.7c-13.6,2.9-26.2,8.1-38,15
		c-6.6,3.9-12.8,8.2-18.4,13.6c-1,0.8-1.8,1.6-0.3,2.9c5.2,4.9,10,9.9,15.2,14.9c0.5,0.6,0.8,1.1,1.3,1.8c-0.3,2.6-2.9,2.7-4.2,4.2
		c-2.4-2.3-4.9-4.5-7.3-6.6c-3.2-3.4-6.5-6.6-9.7-10c-1.1-1.1-1.8-0.6-2.7,0.3C48.4,84.7,39,101.4,33.9,120.3
		c-0.8,3.1-2.3,6.1-1.6,9.5c-0.8,3.4-2.1,6.8-1.8,10.5c-0.3,1.8-0.8,3.4-1.1,5.2c-0.3,1.6,0.6,2.1,2.1,1.9c3.2,0,6.6,0,9.9,0
		c-0.3,2.3,2.1,3.7,1.5,6c-3.2,0-6.5,0-9.7,0.2c-0.2-0.5-0.2-1.1-0.8-1c-0.2,0-0.3,0.6-0.5,1c-2.1-0.3-2.7,0.8-2.3,2.6
		c0.2,0.6,0.3,1.3,0.5,2.1c0.3,10,2.7,19.7,5.8,29.1c5.3,16.3,13.9,30.9,25.2,43.8c1.1,1.3,1.9,1.3,2.9,0.2c4.9-5,9.7-9.9,14.6-14.9
		c0.8-0.6,1.6-1.3,2.4-1.8c2.9,0.3,3.1,2.7,3.6,4.9c-0.2,0.3-0.5,0.8-0.6,1.1c-5.2,5-10.4,10.2-15.5,15.2c-1,1-1.1,1.8,0,2.7
		c8.7,7.4,18.1,14.1,28.5,19.1c14.9,7.1,30.6,11,46.9,12.6c1.9,0.2,2.7-0.5,2.6-2.4c-0.2-4,0-8.1,0-12.1c1.9-0.8,3.9-1.8,5.8-2.6
		c0,5,0.2,9.9,0.2,14.9c0,1.5,0.2,2.6,2.1,2.4c3.6-0.5,7-0.6,10.5-1.3c15.7-2.6,30.6-7.6,44.5-15.7c3.9-2.3,7.4-5,11.3-7.4
		c1.5-0.8,1-3.2,2.3-3.2c3.6,0,4.9-3.2,7.4-4.7c1.1-0.6,0.8-1.6,0-2.4c-5.3-5.2-10.7-10.5-16-15.7
		C214.3,220.1,214.3,219.9,214.3,219.7z"/>
	<path class="st1" d="M152.2,253.4c-1.9,0.8-3.9,1.8-5.8,2.6c-5,1.1-9.9-0.2-14.9-0.3c-1.3,0-2.1-1-2.7-2.4
		c-1.6-3.6-4.7-6.5-4.9-10.8c0-0.2-0.3-0.3-0.5-0.3c-2.3-3.4-1.9-6,2.4-7.3c0.6-0.2,0.5-0.8,0.5-1.3c0-1.6,0-3.4-1.1-4.9
		c0.2-0.8-0.3-1.3-0.8-1.8c-1.6-1.5-1.8-3.1-0.2-4.7c1.9-1.8,0.3-2.4-1-2.9c-1.3-0.5-2.4-1-2.9-2.3c-0.5-1.1-1.6-1.8-2.6-1.9
		c-3.2-0.5-5.5-2.6-8.2-3.9c-4.5-2.1-5.3-5.8-6-9.9c0-1.3-1.5-2.7-0.3-3.7c1.9-1.8,3.9-3.4,5.8-5.3c1-1,2.9-0.3,4.2-1.3
		c3.6,1.3,6.8-0.5,10.4-1c0.8,0.8,1.6,1.9,2.9,1.9c2.9,0.2,5.3,1.5,7.9,2.4c0.8,0.3,1.5,0.5,1.1,1.3c-0.5,1.5-0.5,2.6,1.3,3.2
		c1.3,0.5,1.9,2.3,3.6,2.6c0.5,0.2,0.8,0.2,1.1-0.2c1.5-1.9,3.1-0.6,4.5-0.2c1.9,2.1,4.7,0,6.8,1.1c1.8-0.8,2.3-2.4,2.3-4.2
		c5.2-0.3,10.4-1.6,15-3.4c7.3-2.7,14.1-6.6,19.6-12.1c6.3-6.1,11.5-13.3,14.4-21.5c0.3-1,0.8-1.6,1.8-1.6c0.5,1.1-0.5,2.4,0.8,3.4
		c0.6,0.5,1.9,0,1.8,1.3c-0.2,1.6-1.1,0.3-1.8,0.5c-0.6,0.2-0.6,0.6-0.6,1.1c0,0.8,0,1.8,1,2.1c1.3,0.3,2.3-0.5,3.1-1.3
		c1.1-1.1,2.7-1.6,4-0.2c1.5,1.5,1.3,4.7-0.2,5.7c-2.3,1.5-4.9,2.6-1.9,5.7c-2.1,1-5.8-3.1-6.1,2.3c-4.7-0.8-6.8,1.5-7.3,4.9
		c-0.3,2.3-0.3,4.5-0.3,6.8c-0.2,2.7,1.3,4,4,4.2c0.8,0,2.1-0.5,2.3,0.8c0.2,1.1-1,1.6-2.1,1.6c-0.6-0.3-1.3-1-1.6,0.2
		c-0.6,1.8-1.8,1.6-3.2,1.1c-0.6-0.3-1.6,0-2.3-0.2l0,0c-0.2-0.5-0.6-0.6-1.1-0.6c-1.9-0.5-3.7-2.6-5.7-2.1
		c-1.9,0.5-3.6,0.8-5.5,0.3c-0.6-0.2-1.5-0.2-2.3,0.5c-2.1,1.8-4.5,3.2-7.4,3.4c-1.9,0.8-3.9,0.8-5.7-0.2c-0.3-0.2-1-0.2-1.3,0.3
		c0,0.2,0.2,0.6,0.3,0.8c1.6,1.8,5.3,1.6,6.8-0.3c0.8,0.2,1.6,0.5,2.3,0.5c2.4-0.3,2.7,0.3,2.1,2.7c-0.8,3.4-3.9,5-5.8,7.3
		c-1.8,2.1-4.5,2.6-6.6,4.9c3.6,0.6,5.8-2.1,8.6-2.6c0.3,2.9-1.1,5.2-1.9,7.6c-3.1,2.7-6.1,5.5-8.6,8.9c-1.3,1.9,0.2,3.1,1.1,4.4
		c2.6,3.1,2.3,5-1.5,6.6c-0.8,0.3-1.8,1-2.6,1.5c-1.5,0.6-3.2,1-1.5,3.2c0.5,0.6,0,1.8-0.5,1.8C155.2,248.7,154.7,252.1,152.2,253.4
		z M153.5,205.2c2.9,4,4.7,9.5,11.3,10.8C161.6,211.3,157.6,208.3,153.5,205.2z"/>
	<path class="st2" d="M213.7,82.6c1,1.8,2.7,2.4,4.4,3.7c-1.3,1.6-2.6,3.1-4,4.4c-1.5,1.5-3.7,2.6-4,4.7c-0.3,1.6,2.1,2.6,3.1,3.9
		c3.2,4.2,6,8.7,8.7,13.3c0.5,1.3,0.5,2.7-0.2,4c-1.1,2.6-1,5.2-0.3,7.8c0.5,1.9,1.3,4,0.8,6.1c-0.6-1.6-1.3-3.4-1.8-5
		c-3.2-8.7-7.6-16.7-13.7-23.6c-1.5-1.6-2.3-1.6-3.9,0c-9.9,10-20.1,20.1-29.9,30.1c-0.6,0.6-1.6,1.3-1.5,2.6v-0.2
		c-0.2,0.2-0.5,0.5-0.6,0.6c-1,0.5-1.6,1.9-2.9,1.1c-1.8-1.3-3.9-0.8-5.7-1.6c0-1.5,1.3-2.3,2.1-3.1c11.2-11.2,22.3-22.5,33.6-33.6
		c1.8-1.8,1.8-2.9,0-4.5c-2.9-2.6-6-4.7-9.2-6.8c-9.9-6.3-20.9-9.9-32.5-11c-2.9-0.3-3.7,0.6-3.7,3.6c0.2,15.8,0,31.7,0,47.5
		c-1.1,2.7-3.4,3.1-6,2.3c0-16.8,0-33.5,0-50.3c0-2.6-0.8-3.2-3.2-3.2c-3.4,0-6.6,0.6-9.9,1.3c-12.5,2.4-23.3,7.9-33,16
		c-1.8,1.5-1.9,2.6-0.2,4.2c4.9,4.7,9.4,9.5,14.1,14.2c0,0.8,0.5,1.1,1.3,1.3c-1.5,1.9-3.6,1.5-5.2,0.6c-1.3-0.6-2.3-0.5-3.4,0
		c-4-4.2-8.1-8.2-12.3-12.5c-1-1-1.9-1.1-2.7,0.2c-2.7,3.6-5.5,7.1-7.9,10.8c-2.7,4.4-4.2,9.2-6.8,13.7c-2.6-0.2-4,2.7-6.6,2.6
		c0.3-5.5,3.1-10.2,5.3-14.9c2.9-6.1,6.8-11.6,11.3-16.7c1.5-1.6,0.8-2.4-0.3-3.6c-2.1-2.1-4-4.2-6-6.3c1.5-1.5,3.9-1.8,4.2-4.2
		c1.8,1.8,3.7,3.4,5.5,5.2c2.9,2.9,2.9,2.9,6,0.2c5.2-4.7,11.2-8.4,17.5-11.2c9.7-4.2,19.6-7.6,30.2-7c1.6,0.2,2.1-0.6,2.1-2.1
		c0-3.4,0-6.6,0-10c1.9,0,4,0,6,0c0,2.7,0,5.5,0,8.1c0,4,0,3.9,3.9,4c11,0.2,21,3.9,30.7,8.7c6,2.9,11.3,6.8,16.3,11.2
		c1.3,1.1,1.9,1,3.1-0.2C208.8,86.8,210.6,83.9,213.7,82.6z"/>
	<path class="st1" d="M70.6,127.6c2.6,0.2,4-2.6,6.6-2.6c-0.3,1.9,2.6,1.1,2.6,2.9c-1.3,1.9-0.6,4.2-1,6.3c-1,6.3,0,12.6,0.5,18.8
		c0.2,1.1,0,2.9,1.6,3.6c-0.3,1-0.5,1.8-0.2,2.9c0.5,1.8,0,3.7-1,5.2c-2.3,2.9-3.2,6-2.9,9.5c-0.3,0.8-0.5,1.8,0.3,2.4
		c0,0.2,0,0.3,0.2,0.5c-0.2,0.6,0.2,1.5,0.2,2.1c0,3.2,1.6,6.5-1,9.4c-1.1-0.5-2.3-0.8-3.4-1.8c-1.3-1-2.6-2.1-4.5-1.8
		c-5.2,1-7-0.2-9.1-5c-1.5-3.2-2.3-7.1-6.6-7.8c-2.9-3.6-6.3-6.8-6.6-11.6c0-0.2,0-0.5-0.2-0.5c-3.2-1.1-2.7-4.2-3.4-6.6
		c0.6-2.3-1.9-3.9-1.5-6c0.2-0.8,0.6-2.4,0-2.6c-2.9-0.8-2.7-3.4-3.1-5.5c-1.6,0.6-0.5,2.6-2.3,3.2c0.5-2.4-1.1-4.2-1.5-6.3
		c-2.1,0.8-2.4,3.1-4,4c-0.3-3.7,1-7,1.8-10.5c0.6-2.4,2.3-4.2,4.4-5.3c0.8-0.3,2.6-4.5,2.9,0.3c0,0.3,0.3,0.3,0.6,0.3
		c1.8,0.3,1.8,0.3,1.3,2.1c-0.3,1,0.5,0.8,0.8,1.1c0.3,0.2,0.8,0.6,0.8,0.6c0.5-0.6,0-0.8-0.3-1.1c0-0.3,0.2-1.1,0.3-1
		c1.5,1.1,3.6,1.3,4.7,3.1c0.8,1.1,1.3,2.4,2.7,3.1c1.6,0.5,3.1,1.3,4.4,2.3c3.6,2.6,6.8,2.7,8.1,0C64.6,131.8,67,129.2,70.6,127.6z
		"/>
	<path class="st3" d="M248.6,106.2c0.6-1.8,0.2-3.1-1.3-3.9c-0.3-0.2-1,0-1.1,0c-0.3,1.6,1,2.4,1.6,3.6
		C248,106,248.1,106,248.6,106.2z"/>
	<path class="st1" d="M241,101.2c2.3,1.1,3.7,3.2,4.7,5.2c1.1,2.4,2.7,4.9,3.2,7.6c0.3,1.6,0.3,3.2,0.2,5c-0.2,2.1-1.1,4.5,0.6,6.6
		c0.3,0.3,0.2,0.6,0,1.1c-1.5,3.1-1.1,6.1-0.2,9.1c1.1,3.9,0.8,8.1,3.1,11.5c0.5,1.9,0.5,4,0.3,6c0.2,1.1,0.8,2.4,0.6,3.6
		c-0.2,2.1,1.1,5.5-3.2,5.2c-0.6,0-2.1,0.3-2.4,1.5c-0.3,0-0.6,0.2-0.8,0.3c-3.6,1.8-4,1.5-5-2.3c-0.8-2.7-0.5-5.5-1.3-8.2
		c0.2-2.7-3.4-3.6-3.6-6.1c-1.1-1.8-2.1-3.6-1.8-5.8c0.2-1-0.2-2.3-1.1-2.6c-3.1-0.8-2.9-3.2-2.4-5.2c0.3-1.5-3.7-4.5,1.5-4.4
		c0,0,0.2-0.8,0.2-1.1c0-1.3-0.3-2.6-0.2-3.9c0.3-1.6-1.3-2.6-1.6-2.1c-1.5,1.3-4.4-1.3-4.9,2.1c-0.3,2.3,1.1,4,1.3,6.1
		c-1.3,0.3-1-1.5-2.3-1.5c-0.8,3.7,1,7.9-1.9,11.3c-1-1.3-1.5-3.2-0.8-4c1.9-2.6-0.2-3.9-1.1-5.7c0.5-2.1-0.3-4.2-0.8-6.1
		c-0.6-2.7-0.8-5.2,0.3-7.8c0.5-1.3,0.6-2.7,0.2-4c1.9,1.3,1.9,3.4,1.8,5.3c-0.2,2.3,1.8,2.7,2.9,3.7c0.5,0.5,1-0.2,1.1-0.5
		c1.1-2.7,2.7-5.3,2.9-8.2c0.2-3.2,0.2-6.6,0.2-9.9c-0.2-3.4,2.4-5,5.3-3.4C237.6,100.4,239.3,101.2,241,101.2z"/>
	<path class="st2" d="M76.6,188.5c2.4-2.9,1-6.3,1-9.4c0-0.6-0.3-1.3-0.2-2.1c1.8,0.8,1.6,2.6,2.3,4c3.1,6.8,7.1,13.1,12,18.8
		c1.5,1.6,2.3,1.6,3.9,0c11.5-11.6,23.1-23.1,34.8-34.8c0.8-0.8,1.8-1.6,1.6-3.1c3.9,2.4,7.3,1.3,10.4-1.5c0.3-0.3,0.6-0.3,1-0.6
		c-1.3,3.6-4.2,5.5-7,7.4c-1-0.2-1.5-2.4-2.7-1.1c-1.3,1.5,0.5,1.9,1.5,2.4c-0.2,1.1-1.3,1.8-1.9,2.6c-5.3,5.5-10.8,10.8-16.2,16.2
		c-1.1,1.1-2.1,2.6-3.7,3.4c-1.3,1-3.2,0.3-4.2,1.3c-1.8,1.9-3.7,3.6-5.8,5.3c-1.1,1,0.5,2.4,0.3,3.7c-0.3,0.2-0.5,0.3-0.8,0.5
		c-5.3,5.5-5.8,3.7,0.5,8.9c6.3,5.2,13.6,8.6,21,11.5c-1.6,1.6-1.5,3.2,0.2,4.7c0.5,0.5,1,1,0.8,1.8c-5.5-1.1-10.5-3.4-15.4-6
		c-5.2-2.9-10-6-14.4-10c-1.3-1.3-2.4-1.5-3.9,0.2c-2.1,2.4-4.5,4.5-7,6.8c-0.6-2.1-0.6-4.5-3.6-4.9c1.5-1.6,2.9-3.1,4.4-4.7
		c3.7-3.7,3.6-3.6,0.2-7.6C81.7,198.4,78.3,194,76.6,188.5z"/>
	<path class="st2" d="M214.3,219.7c-2.7-2.6-5.3-5.2-8.1-7.8c-1-1-1.5-1.1-2.7-0.2c-4.9,4.2-10,8.1-15.8,11
		c-7.8,4-15.8,7.3-24.7,8.2c2.4-3.4,5.5-6.1,8.6-8.9c1,0,1.8,0,2.7-0.3c9.2-3.2,17.3-8.2,24.6-14.6c1.1-1,0.6-1.8-0.2-2.7
		c-1.3-1.6-3.4-2.6-3.9-4.9c0.8,0,1.6-0.2,2.3,0.2c1.5,0.5,2.6,0.6,3.2-1.1c0.3-1,1.1-0.3,1.6-0.2c1.6,3.4,2.1,3.4,4.4,0.8
		c1.1-1.3,2.3-2.6,3.2-3.9c2.9-4.4,6.3-8.6,7.4-13.9c3.1-1.8,6.6-2.7,9.1-5.5c-0.5,5-3.1,9.2-5.2,13.4c-2.7,5.3-6,10.4-10,14.6
		c-1.3,1.3-1.5,2.4,0.2,4c2.4,2.1,4.5,4.7,6.8,7C216.1,216,215.3,218,214.3,219.7z"/>
	<path class="st4" d="M224.2,70.8c-1.8-1.5-4-2.1-6.3-2.6c-1.6-0.3-2.9-1-4-3.1c4.5,0.6,8.6,1.1,12,4c0.5,0.8,0.8,1.6,1.5,2.9
		C225.8,71.6,225,71.3,224.2,70.8z"/>
	<path class="st5" d="M33.1,153.6c0,1.3,0,2.7,0,4.5c-1.8-1.5-1-3.1-1.3-4.5c0.2-0.3,0.3-1,0.5-1C32.9,152.5,32.9,153.1,33.1,153.6z
		"/>
	<path class="st4" d="M205.8,159.6c-1.1,0-1.5,0.8-1.8,1.6c-3.1,8.4-8.1,15.4-14.4,21.5c-5.7,5.5-12.5,9.4-19.6,12.1
		c-4.7,1.8-9.9,3.1-15,3.4c-1-1.1-1.9-0.2-2.9,0.2c-2.4,0-4.2-1-5-3.4c0-0.2-0.3-0.2-0.5-0.3c-2.9-1.5-1,2.3-2.6,2.4
		c-1.1-2.9-2.3-6-4.7-8.2c-1.5,2.4,3.2,3.6,1,6.1c-2.4-5.5-6.5-7.9-10.2-5.3c-2.7,1.8-4.5,1.1-6.5-0.6c-1.9-2.4,0.8-3.4,1.8-4.7
		c1.1-1.5,2.1,0.2,2.9,0.8c1.9,1.6,2.7,0.5,2.6-1.1c-0.3-2.6,0.8-2.1,2.3-1.6c0.6,0,1.5,0.2,1.9-0.5c2.1-0.3,3.9-1,5.8-1.8
		c0.6-0.3,0.8-0.6,0.8-1.3c0-0.5-0.2-1.1-0.8-0.8c-1,0.3-1.6-0.2-1.5-0.8c0.3-0.8,0-2.3,1.1-2.4c2.7-0.6,4-2.9,6-4.7
		c2.3-1.6,4,0.5,6,1c0.6,0.5,1.3,0.8,1.3,1.8c-0.8,0.3-1.9-0.5-2.1,0.8c0,0.2,0.6,0.8,1.1,0.8c1.3,0.2,0.8-1,1-1.6
		c1-0.5,0.5-1.8,1.6-2.3c3.1-1.1,4.9-3.2,3.9-6.8c0.5,0.2,0.8,0.8,1.3,0c1.3-0.2,2.7,0.2,4-0.8c5.3-4.2,9.9-8.9,11.2-16
		c0.2-0.8,0.6-1.1,1.3-1.5c1.6,0.3,1.6-0.5,1.1-1.8c-0.8-2.4,1.3-2.7,2.6-3.6c0.3-0.2,1.3,0,1,0.8c0,0.3-0.8,0.5-0.8,0.6
		c0.3,0.6,0.8,0.2,1.3,0.3c2.6,0.6,5.3,0.5,6.5,3.9c0.3,1.1,2.1,2.4,3.9,1.5c1.1-0.6,2.1-0.6,3.1,0.2c0.2,0.8-0.2,1-1,1.3
		c-1.8,0.6-3.1,1.8-2.9,4c0,0.5-0.8,1.1,0.2,1.5c0.6,0.2,1.1-0.3,1.3-1c0.2-0.5,0.3-1,0.8-1.1c1.1,1.9,1.1,1.8,2.7,0.6
		c2.9-2.3,5,0.2,7.1,1.6C204.6,156,206.3,157.5,205.8,159.6z M153.1,191.3c-0.2,0-0.3,0-0.6-0.2c-0.8-0.3-1.6-2.1-2.6-0.5
		c-0.6,1-2.1,1.9-1.5,3.1c0.8,1.3,2.3,0.5,3.6-0.2c0.2-0.2,0.3-0.2,0.5-0.2c1.8,0.3,3.6,1.3,5.7-0.5c-1.1-0.6-2.4-1.1-2.9-1.9
		C154,188.2,153.7,190.1,153.1,191.3z M140.4,181.4c2.4,1.5,4.4,1.8,6-1.1c0.8-1.5-0.3-2.3-0.2-3.4c0.2-0.3,1.1-1.3-0.3-1.5
		c-1-0.2-1.5,0.6-1.5,1.5C144.8,179.8,143.3,181.1,140.4,181.4z M161.8,188.7c-1,3.1,2.9,3.4,2.7,6c0,0.2,1.6,0.5,2.3,0
		c0.8-0.5,0.2-1.1-0.2-1.8C165.7,190.8,163.9,189.7,161.8,188.7z"/>
	<path class="st2" d="M145.8,201.5c1.5-2.1,0.3-4.5,0.6-6.8c0.2,0.2,0.5,0.2,0.5,0.3c0.8,2.4,2.6,3.4,5,3.4c0.5,1.3,0.6,2.7,0.6,4
		C150.3,201.5,147.7,203.6,145.8,201.5z"/>
	<path class="st2" d="M194.9,199.7c-0.5,0-1-0.2-1.1-0.6C194.1,199,194.6,199,194.9,199.7z"/>
	<path class="st6" d="M127,114c2.9,0,5.2,1.5,5.8,3.9c1.1,4.4,4.9,5.8,7.9,7.9c1.6,1.1,3.4,2.9,5.7,2.9c2.6,0.8,4.7,0.5,6-2.3
		c2.3,0.5,3.6,2.3,4.5,3.9c0.3,0.6-0.5,3.2-1.8,4.7c-1,1-1,2.9-2.6,3.4c-2.1,0.2-3.9-1.8-6.1-0.8c-1.5,0.5-2.6,1.5-4.2,1.5
		c-0.3,0-1.1-0.2-1,0.6c0.2,0.5,0.6,1.1,1.1,0.8c2.1-1.5,1.5,1,2.1,1.5c-0.3,0.2-0.6,0.5-1,0.6c-0.2,0-0.5,0-0.6,0
		c-1.3-0.6-1.9,1-2.9,1.1c-0.5-1.1-1.5-0.6-2.3-0.6c-0.3-0.3,0.2-1.5-0.6-1.1c-0.6,0.2-0.2,1,0.2,1.5c0.6,1.6,1.8-0.2,2.6,0.5
		c0,1.3,0.8,1.8,1.9,1.6c0,0.5,0.2,0.8,0.2,1.3c-0.2,1.6,1.6,1.1,2.3,1.8c0.5,3.2,0.3,6.5,1.3,9.7c-0.2,1.1-1.5,1-2.1,1.6
		c-0.3,0.2-0.8,0.3-1,0.6c-3.1,2.7-6.5,3.9-10.4,1.5c-0.6-0.8-1.6-1-2.7-1.1c-1-0.2-2.6,0.5-2.9-0.8c-0.3-1.5,1-2.6,2.1-3.4
		c1.1-0.8,2.4-1,3.9-1.1c2.1-0.2,4-0.6,5.7-2.1c0.5-0.5,1-1,1.3-1.6c0.3-0.5,2.1,0.3,1.1-1.3c-0.6-1.1-2.3-1.9-2.6-1.6
		c-1.8,1.9-4.7,1.9-6.5,3.9c-0.3,0-0.8,0-1.1,0c-1.1-1.8-3.1-2.4-5-3.1c-0.3-0.2-1,0.2-0.6,0.6c1.9,2.6-1.5,1.8-1.8,2.9
		c-1.9,0-1.6,3.4-4,2.4c0-0.8-0.5-1.1-1.3-1.1c0-0.3,0-0.8,0-1.1c-0.2-1.3,0.6-2.7-0.5-3.9c0-0.6-0.3-1.5-0.2-2.1
		c0.3-3.2-4-7.8,2.6-9.4c0.8-0.2,0.8-1,0.3-1.6c-0.3-0.5-0.5-0.6-0.8-0.2c-1.6,2.9-2.1-0.3-2.9-0.6c-1.8-0.8,0.5-1.1,0.6-1.8
		c0-0.5,0.2-1,0.3-1.5c0.8-3.7,2.4-7.1,4.4-10.5C122.6,119.1,125.2,116.9,127,114z M120.5,142.9c2.1,1.5,3.9,3.2,6.5,3.4
		c0.5,0,1.1,0.2,1,0.8c-0.3,1.8,0.3,1.6,1.3,0.8c0.5-0.3,1-0.6,1.3,0c0.6,1.1,1.3,0.8,2.1,0.3c0.5-0.3,1.1-0.8,0.5-1
		c-1-0.3-0.5-2.1-2.1-1.6c-1.5,0.5-1.5-0.8-0.8-1.3c1.8-1.6,0.3-2.7-0.5-3.9c-1.1-1.5-2.4-0.6-3.7,0
		C124.4,141.3,123.1,143.6,120.5,142.9z"/>
	<path class="st4" d="M127,114c-1.8,2.9-4.2,5.2-6,8.1c-1.9,3.4-3.4,6.8-4.4,10.5c-0.2,0.5-0.3,1-0.3,1.5c0,0.6-2.3,1-0.6,1.8
		c0.8,0.3,1.3,3.6,2.9,0.6c0.3-0.5,0.5-0.3,0.8,0.2c0.5,0.8,0.3,1.5-0.3,1.6c-6.6,1.5-2.3,6.1-2.6,9.4c0,0.6,0.2,1.5,0.2,2.1
		c-1.1,1.1-3.2,1.5-3.1,3.9c-0.2,0-0.3,0-0.5,0c-1.5-1.8,0.3-4.2-0.8-6.1c-2.1-1-1.6-3.9-3.7-4.9c-1.8-0.8-2.7-2.3-3.1-4
		c-0.3-2.3-1.6-2.9-3.9-2.6c-0.6,0.2-1.3,0-2.1-0.2c0-0.2,0-0.3,0-0.5c0-2.1,1.8-1.8,2.7-1.8c2.6,0,3.6-1.6,3.7-3.6
		c0.2-1.3,0.3-2.4,1.5-3.4c1.5-1.3,1.6-3.1,0.3-4.5c-1.5-1.8-2.9-3.7-5.7-2.6c-2.1,0.8-2.6,2.4-1.8,4.7c0.5,1.3,0,2.9-1,3.6
		c-1.3,0.8-1.5-1.1-2.3-1.8c-0.5-0.3-0.8-0.6-1.3-1.1c-0.8,1.3-1.3,2.3-1.9,3.2c-0.5,0.8-1.1,1.8-2.1,0.8c-1.5-1.5-3.1-0.8-4.5-0.8
		l0,0c0.3-1.6,1.8-2.6,3.1-2.9c3.9-1,6.1-4.4,8.9-6.6c2.4-1.9,4.7-3.9,7.4-5.5c1.1-0.5,2.1-0.6,3.4,0c1.6,0.8,3.7,1.5,5.2-0.6l0,0
		c0.2,0,0.5,0,0.6,0l0,0c-0.3,0.6,0,0.8,0.6,0.6l0,0c1.3,1.1,3.2,0.5,4.7,1.5c0.2,0.2,0.3-0.5,0.2-1c0-0.3,0-0.6,0-1
		C123.5,112.7,124.8,114.9,127,114z"/>
	<path class="st6" d="M171.3,134.2c0.3,0,0.8-0.2,1.1,0c1,0.5,2.9-1,2.7,0.8c0,1.5-1.8,2.6-3.4,2.4c-1.5-0.2-2.7-0.2-5,1
		c4.2,0.3,5.2,3.4,7.1,5.3c0.8,0.8,2.1,0.8,2.7,1.6c-0.6,0.3-1.1,0.8-1.3,1.5c-1.1,7.1-5.7,11.8-11.2,16c-1.3,1-2.6,0.6-4,0.8
		c0.8-2.3-0.5-4.2-0.3-6.5c0-0.5,0.2-0.8,0.2-1.3c0.3-1.8,3.6,0,3.1-2.6c1.3-2.4,0.8-4.2-1.8-5.3c2.3-1.5,0.8-3.2,0.5-4.9
		c1-0.8,0.3-1.1-0.5-1.5c-1.8-1-2.9-2.4-3.9-4c-1-2.4-1-2.4,1.8-2.4c1,0,1.3-1.3,2.3-1c1.8,0.8,3.9,0.5,5.7,1.6
		c1.1,0.8,1.9-0.6,2.9-1.1C171,134.7,171.2,134.5,171.3,134.2L171.3,134.2z"/>
	<path class="st7" d="M121.5,112.5c0,0.3,0,0.6,0,1c-1.6-0.6-3.2-0.8-4.9-0.5l0,0c0.2-0.5-0.3-0.5-0.6-0.6l0,0
		c-0.2-0.2-0.3-0.3-0.5-0.5c0,0.2-0.2,0.3-0.2,0.5l0,0c-0.8-0.2-1.3-0.5-1.3-1.3C116.8,110.6,119.3,111.1,121.5,112.5z"/>
	<path class="st8" d="M171.3,134.2c0,0.5-0.3,0.6-0.6,0.6C170.8,134.5,171,134.3,171.3,134.2z"/>
	<path class="st4" d="M83.2,153.4c-0.8,1-1.5,2.1-2.3,3.1c-1.8-0.6-1.6-2.4-1.6-3.6c-0.5-6.3-1.5-12.5-0.5-18.8
		c0.3-2.1-0.3-4.4,1-6.3c1.1,0.6,1.1,1.9,1.6,3.1c0.5,1.5,1.9,1.8,3.1,1.6c1-0.2,2.4-0.6,1.8-2.4c-0.3-1.1,0.3-1.8,1.5-2.3l0,0
		c-0.3,3.9-2.3,7.6-0.6,11.6c0.2,0.5-0.3,1.1-0.3,1.6c-0.2,2.1-2.4,3.7-1.9,6.1C84.3,149.5,84.5,151.6,83.2,153.4z"/>
	<path class="st2" d="M76.9,174.1c0.5,0.8,0.3,1.6,0.3,2.4C76.4,175.9,76.6,175.1,76.9,174.1z"/>
	<path class="st3" d="M42.8,128c0.3,0.3,1,0.5,0.3,1.1c0,0-0.5-0.5-0.8-0.6C42.4,128.2,42.6,128.2,42.8,128z"/>
	<path class="st1" d="M171.5,243.3c-1-4.7,3.7-5.7,5.7-8.4c0.5-0.6,0.6-1.6,1.8-1c0.6,0.5,1.1,1,1.3,1.9c0,0.2,0,0.2-0.2,0.3
		c-0.3,1.6-0.6,3.1-0.8,4.7c-0.5,2.3-0.8,4.9-3.9,5.3C173.1,246.7,171.5,246.1,171.5,243.3z"/>
	<path class="st4" d="M205.8,63.2c1.1-0.2,2.3,0.3,3.4,0.2c2.7-0.3,3.2,1.9,3.7,4c-3.2-0.5-0.5,2.1-1.6,3.2
		C210.3,67.4,208.2,65.1,205.8,63.2z"/>
	<path class="st6" d="M248.6,106.2c-0.5-0.2-0.8-0.2-0.8-0.3c-0.6-1.1-1.9-1.9-1.6-3.6c0-0.2,0.8-0.2,1.1,0
		C248.8,103.1,249.3,104.4,248.6,106.2z"/>
	<path class="st2" d="M195.4,147.4c7,0,14.1,0,21-0.2c1.1,0.8,0.3,2.6,1.8,3.6c0-1.5,1.6-2.1,1.5-3.6c0.3,0,0.8,0,1.1,0
		c3.7-0.2,3.9-0.2,1.9-3.6c-0.5-0.8,0-0.8,0.3-1c1-0.8,0.6-1.8,0.6-2.7c2.9-3.2,1.1-7.6,1.9-11.3c1.3,0,1,1.8,2.3,1.5
		c1.6,4.2,1.8,8.9,2.9,13.3c0.8,3.2,1.9,4.5,5,3.9c0.3,0,0.8,0,1.1,0c0.2,2.6,3.7,3.2,3.6,6.1c-2.6,0-5.2,0.2-7.8,0.2
		c-1.8,0-2.1,0.5-1.3,2.1c0.8,1.8-0.2,3.7-0.5,5.5c-1.1,1.6-2.4,3.2-2.3,5.3c0.2,1.9-1,3.2-1.5,4.9c-0.2,0.8-1,1.3-1.6,0.8
		c-1.3-1.3-1.9-0.6-2.7,0.6c-0.5,1-1.6,0.5-2.4,0.5c0.5-1.8,0.8-3.6,1.3-5.3c1.9,0.2,3.7,0,4.2-2.3c0.8-3.4,2.6-7-2.1-9.2
		c-0.2-0.2-0.3-0.5-0.5-0.8c0.8,0,1.1-0.5,1.1-1.3c0.5,0.2,1.1,0.6,1.6,0.6c0.8-0.2,2.1-0.3,2.4-1.3c0.3-1-0.6-1-1.3-1.1
		c-1.1-0.3,0-0.6,0.2-0.8c0.5-0.6,1.1-1.3,0.6-2.4c-1.1,0.2-2.1,2.7-3.2,0.3c-0.6,1.1,1,2.6-0.8,3.6c-3.7,0-7.3,0-11,0
		c1-1.5-0.5-2.6,0.3-4.4c-1.8,1.1-1.1,3.7-3.6,2.6c-0.8-0.3-1,1-0.8,1.8c-1.9,0.3-3.7,0.5-5.7,0.8c-2.3-1.3-4.2-3.7-7.1-1.6
		c-1.6,1.3-1.6,1.3-2.7-0.6c-0.5,0.2-0.8,0.6-0.8,1.1c-0.2,0.6-0.5,1.1-1.3,1c-1-0.3-0.2-1-0.2-1.5c-0.2-2.3,1.1-3.2,2.9-4
		C195.3,148.4,195.6,148.3,195.4,147.4z"/>
	<path class="st1" d="M221,173.3c0.8,0,1.9,0.5,2.4-0.5c0.8-1.3,1.3-1.9,2.7-0.6c0.6,0.6,1.5,0,1.6-0.8c0.3-1.6,1.6-2.9,1.5-4.9
		c-0.2-2.1,1.1-3.7,2.3-5.3c-0.3,4.7-1,9.4-4.4,13.1c-0.3,0.3-0.3,1-0.5,1.5c-2.4,2.7-6,3.7-9.1,5.5c-1.1,0.6-2.3,1.1-3.6,1.8
		c0.3-2.9,3.1-3.4,4.4-5.3c-1.5-1.3-2.7-0.2-4,0.3c-0.6,0.2-1.3,1.1-1.8,0c-0.5-0.8,0.2-1.3,0.8-1.6
		C215.8,175.7,217.9,173.5,221,173.3z"/>
	<path class="st6" d="M136.2,167.5c0,0.8-0.5,1.3-1.3,1.5c-1-0.6-2.7-1-1.5-2.4C134.6,165.1,135.1,167.3,136.2,167.5z"/>
	<path class="st9" d="M161.6,148.1c2.6,1.1,3.1,2.9,1.8,5.3c-1.9,0-3.9,0-6,0c0.5,1.1,0.6,1.8,1,2.4c-0.5,0.6-2.1,0.3-1.6,1.6
		c0.3,0.8,1.3,0.3,2.1,0c0.3-0.2,0.8,0,1.1,0c-0.3,2.1,1.1,4.2,0.3,6.5c-0.5,0.8-0.8,0.2-1.3,0c-0.6,0-1.5,0-2.1-0.2
		c0.2-0.8-0.2-1.1-1-1c-0.2-2.1-2.9-1.9-3.7-3.9c0,4,0,8.1,0,12.1c-1.9-0.5-3.7-2.7-6-1c0-3.1,0-6.1-0.2-9.2c0-1,0.5-2.1-1.1-2.4
		c-1-3.2-0.8-6.5-1.3-9.7c1.3-3.1-1-1.9-2.3-1.8c0-0.5-0.2-0.8-0.2-1.3l0,0c1.3-0.5,2.6-1.1,1.8-2.9c0.3-0.2,0.6-0.5,1-0.6
		c1,0.2,2.3,0.6,1.9-1.3c-0.2-1.1,0-2.1-0.2-3.2c2.3-1,4,1,6.1,0.8c0.2,1.3-0.3,2.6,0.3,4c1.8-1.6,3.6-3.1,5.2-4.5
		c1,1.6,2.1,3.1,3.9,4c0.6,0.3,1.3,0.6,0.5,1.5c-2.4,0.3-3.1,2.4-4.7,3.9C159,147.8,160.5,147.3,161.6,148.1z"/>
	<path class="st6" d="M133,182.5c-1.3-1.1-0.6-3.7-2.9-4c-0.3,0-0.3-0.6,0-1c1.3-1.5,3.4-1.5,5-2.1c0.5-0.2,0.8,0.8,0.6,1.1
		c-0.8,1.8,0,3.7-0.6,5.5C134.3,182.9,133.6,182.7,133,182.5z"/>
	<path class="st2" d="M153.1,191.3c-0.3,0.6-0.8,1.3-0.5,2.1c-0.2,0-0.3,0.2-0.5,0.2c-1.1,0.6-2.6,1.3-3.6,0.2
		c-0.8-1.1,0.8-2.1,1.5-3.1c1.1-1.6,1.8,0.2,2.6,0.5C152.7,191.3,152.9,191.3,153.1,191.3z"/>
	<path class="st6" d="M153.7,172.8c-0.2,0.6,0.3,1.8-1,1.6c-0.5,0-1.1-0.6-1.1-0.8C151.8,172.3,153.1,173.2,153.7,172.8L153.7,172.8
		z"/>
	<path class="st1" d="M224,156c0.2,0.3,0.2,0.6,0.5,0.8c4.7,2.1,2.9,5.8,2.1,9.2c-0.5,2.1-2.4,2.3-4.2,2.3c-0.2-3.4-1.1-6.5-2.7-9.4
		c-0.3-0.6-1.1-1.3,0-2.3c0.8-0.8,1.1-1.1,2.1-0.2C222.3,157.1,223.1,155.7,224,156z"/>
	<path class="st4" d="M224.7,153.6c1.6-0.8,0-2.4,0.8-3.6c1.3,2.4,2.1-0.2,3.2-0.3c0.5,1-0.2,1.6-0.6,2.4c-0.2,0.2-1.3,0.5-0.2,0.8
		c0.6,0.2,1.6,0.2,1.3,1.1c-0.3,1-1.6,1-2.4,1.3c-0.5,0.2-1.1-0.3-1.6-0.6C225,154.4,224.9,153.9,224.7,153.6z"/>
	<path class="st7" d="M209.5,153.4c-0.2-0.8,0.2-2.1,0.8-1.8c2.4,1.1,1.9-1.5,3.6-2.6c-0.8,1.8,0.6,2.9-0.3,4.4
		C212.2,154.2,210.9,153.8,209.5,153.4z"/>
	<path class="st6" d="M191.1,137.9c1.3-0.2,2.1,0.6,2.7,1.8c1,1.5,1.3,3.6,3.4,4.2c0.8,0.2,0.8,1,0.2,1.5c-0.5,0.3-1,1-1.8,0.2
		c-0.8-1-1.6-1.9-2.3-3.1c-0.6-1.5-2.4-1.9-3.9-2.7c-0.5-0.3-1.6,0.2-1.6-0.8c0-1.1,1.1-0.8,1.9-1
		C190.2,137.9,190.7,137.9,191.1,137.9z"/>
	<path class="st6" d="M219.8,147.4c0.2,1.5-1.5,1.9-1.5,3.6c-1.5-1-0.8-2.7-1.8-3.6C217.6,144.9,218.7,147,219.8,147.4z"/>
	<path class="st7" d="M184.6,136.8c1.5,1.1,2.6,1.8,2.1,3.2c0,0.2-1.1,0.3-1.6,0.2C183.6,139.4,184.8,138.2,184.6,136.8z"/>
	<path class="st2" d="M137.8,153.6c-2.3-0.3-4.5,0.6-6.6-0.6c1.8-1.9,4.7-1.9,6.5-3.9c0.3-0.3,1.9,0.5,2.6,1.6
		c1,1.6-0.8,0.8-1.1,1.3C138.8,152.5,138.3,152.9,137.8,153.6z"/>
	<path class="st2" d="M129.9,152.9c-2.4,1.1-5,0.3-7.4,0.5c0.3-1.1,3.7-0.3,1.8-2.9c-0.3-0.5,0.3-0.8,0.6-0.6
		C126.9,150.5,128.8,151.2,129.9,152.9z"/>
	<path class="st7" d="M118.4,155.9c-0.5,0.2-1,0.3-1.3,0.6c-0.6,0.5-1.1,1.9-2.3,1.1c-0.8-0.6-0.2-1.8,0-2.4
		c0.3-1.8,1.5-0.3,2.3-0.3C118,154.7,118.4,155,118.4,155.9z"/>
	<path class="st2" d="M117.1,153.6c-1.1,0-2.4,0-3.6,0c-0.3-2.3,1.8-2.7,3.1-3.9C117.8,150.8,117,152.3,117.1,153.6z"/>
	<path class="st9" d="M141.6,145.7c-1.1,0-1.9-0.3-1.9-1.6l0.2-0.2c1.1-0.2,1.6-1.8,2.9-1.1C142.2,143.6,141.2,144.4,141.6,145.7
		L141.6,145.7z"/>
	<path class="st0" d="M141.7,146.8c1.3-0.2,3.6-1.3,2.3,1.8C143.3,147.9,141.6,148.6,141.7,146.8z"/>
	<path class="st0" d="M141.6,145.7c-0.3-1.3,0.6-2.1,1.1-2.9c0.2,0,0.5,0,0.6,0C144.2,144.5,142.9,145.2,141.6,145.7z"/>
	<path class="st9" d="M139.6,143.9c-0.8-0.6-1.9,1.1-2.6-0.5c0.2-0.2,0.3-0.2,0.5-0.3c0.8,0.2,1.8-0.3,2.3,0.6
		C139.8,143.7,139.6,143.9,139.6,143.9z"/>
	<path class="st9" d="M137,143.4c-0.5-0.5-0.8-1.3-0.2-1.5c0.8-0.3,0.3,0.8,0.6,1.1C137.2,143.2,137.2,143.4,137,143.4z"/>
	<path class="st2" d="M84.6,147.4c9.2,0,18.4,0,27.7,0c1,1.9-0.8,4.2,0.8,6.1c-10,0-19.9,0-29.9,0C84.5,151.6,84.3,149.5,84.6,147.4
		z"/>
	<path class="st5" d="M99.7,135.8c-0.2,1,1.3,3.1-1.6,2.1c-0.6-0.2-1.6,0.6-2.6,0.5c-0.3,0-0.5,1.3-1.1,0.5
		c-0.3-0.3-0.5-1.1-0.2-1.5c1.8-2.3,3.4-4.5,5-7c0.5,1.5-0.3,2.6-0.6,3.9c-0.5,1.6,0.6,0.8,1.3,1C99.7,135.5,99.7,135.6,99.7,135.8z
		"/>
	<path class="st3" d="M116.7,113c1.6-0.2,3.2-0.2,4.9,0.5c0.2,0.3,0,1.1-0.2,1C119.9,113.5,118,114.1,116.7,113z"/>
	<path class="st3" d="M116,112.3c0.3,0,0.8,0,0.6,0.6C116,113.2,115.7,113,116,112.3z"/>
	<path class="st3" d="M115.4,112.3c0-0.2,0.2-0.3,0.2-0.5c0.2,0.2,0.3,0.3,0.5,0.5C115.9,112.3,115.7,112.3,115.4,112.3z"/>
	<path class="st5" d="M158.6,155.9c0.6,0.2,1.3,0.2,1.8,0.3c0,0.5-0.2,0.8-0.2,1.3c-0.3,0-0.8,0-1.1,0c-0.8,0.3-1.8,0.8-2.1,0
		C156.4,156.2,158.1,156.5,158.6,155.9z"/>
	<path class="st5" d="M157.1,163.8c-1,1.3-1.1,2.7,0,4.2c-1.9-0.8-2.3-2.3-1-5.2C156.9,162.6,157.3,163,157.1,163.8z"/>
</g>
</svg>
